<?xml version="1.0" encoding="UTF-8"?>
<svg id="Layer_1" data-name="Layer 1" xmlns="http://www.w3.org/2000/svg" viewBox="0 0 1024 1024">
  <defs>
    <style>
      .cls-1 {
        fill: #fff;
      }

      .cls-2 {
        fill: #ccff31;
      }
    </style>
  </defs>
  <rect x="-41.19" y="-17.89" width="1100.12" height="1077.22"/>
  <rect class="cls-2" x="-12.26" y="982.45" width="1043.72" height="54.13"/>
  <rect class="cls-2" x="-12.26" y="-12.57" width="1043.72" height="54.13"/>
  <g>
    <g>
      <polygon class="cls-1" points="316.46 707.54 316.46 628.48 282.41 628.48 282.41 741.59 507.69 741.59 480.58 707.54 316.46 707.54"/>
      <polygon class="cls-1" points="707.54 316.46 707.54 395.52 741.59 395.52 741.59 282.41 516.31 282.41 543.42 316.46 707.54 316.46"/>
      <polygon class="cls-1" points="316.46 373.23 316.46 318.57 318.14 316.46 361.66 316.46 422.27 316.46 395.16 282.41 388.77 282.41 345.25 282.41 282.41 282.41 282.41 361.33 282.41 395.52 316.46 395.52 316.46 373.23"/>
      <polygon class="cls-1" points="707.54 650.77 707.54 705.43 705.86 707.54 662.34 707.54 601.73 707.54 628.84 741.59 635.23 741.59 678.75 741.59 741.59 741.59 741.59 662.67 741.59 628.48 707.54 628.48 707.54 650.77"/>
    </g>
    <path class="cls-2" d="m809.42,395.52h-203.06l-62.95-79.06-27.11-34.05-54.01-67.83h-72.19l144.06,180.94H232.15l50.26,63.12,34.05,42.76,56.21,70.6h-158.09v56.48h101.88s101.18,0,101.18,0l62.95,79.06,27.11,34.05,54.01,67.83h72.19l-144.06-180.94h302.02l-50.26-63.12-34.05-42.76-56.21-70.6h158.09v-56.48Zm-134.74,176.49h-229.82l-95.55-120.01h229.82l95.55,120.01Z"/>
  </g>
</svg>