<?xml version="1.0" encoding="UTF-8"?>
<svg id="Layer_1" data-name="Layer 1" xmlns="http://www.w3.org/2000/svg" viewBox="0 0 1024 1024">
  <defs>
    <style>
      .cls-1 {
        fill: #fff;
      }

      .cls-2 {
        fill: #ccff31;
      }
    </style>
  </defs>
  <rect x="-41.19" y="-17.89" width="1100.12" height="1077.22"/>
  <g>
    <g>
      <path class="cls-1" d="m257.89,619.99h14v72.05l-47.97-42.98v41.36h-14v-72.05l47.97,42.98v-41.36Z"/>
      <path class="cls-1" d="m333.68,688.53c-4.44,1.88-9.2,2.82-14.28,2.82s-9.84-.94-14.28-2.82c-9-3.73-15.4-10.1-19.22-19.13-1.91-4.53-2.87-9.26-2.87-14.19s.94-9.75,2.82-14.19c3.79-9,10.2-15.37,19.22-19.13,4.44-1.88,9.21-2.82,14.33-2.82s9.86.92,14.33,2.77c9,3.73,15.39,10.11,19.18,19.13,1.88,4.44,2.82,9.18,2.82,14.23s-.94,9.8-2.82,14.23c-3.79,9.03-10.2,15.39-19.22,19.09Zm-14.28-11.37c6.13,0,11.25-2.09,15.34-6.28,4.07-4.16,6.1-9.38,6.1-15.67s-2.02-11.49-6.05-15.71c-4.07-4.16-9.2-6.24-15.39-6.24s-11.32,2.08-15.39,6.24c-4.07,4.19-6.1,9.43-6.1,15.71s2.05,11.54,6.15,15.67c4.07,4.19,9.18,6.28,15.34,6.28Z"/>
      <path class="cls-1" d="m380.92,651.7v38.73h-14v-72.05l35.17,38.73,35.21-38.73v72.05h-14v-38.73l-21.21,23.85-21.17-23.85Z"/>
      <path class="cls-1" d="m479.77,618.38l35.68,72.05h-16.08l-5.5-11.74h-28.01l-5.5,11.74h-16.08l35.49-72.05Zm0,28.88l-9.01,19.5h18.02l-9.01-19.5Z"/>
      <path class="cls-1" d="m522.47,690.42v-70.43h23.94c5.7,0,10.98.84,15.83,2.52,4.85,1.68,8.99,4.06,12.41,7.14,3.42,3.08,6.06,6.82,7.93,11.21,1.86,4.39,2.8,9.17,2.8,14.35s-.93,9.96-2.8,14.35c-1.86,4.39-4.51,8.13-7.93,11.21-3.42,3.08-7.56,5.46-12.41,7.14-4.85,1.68-10.13,2.52-15.83,2.52h-23.94Zm14.37-56.52v42.61h11.55c6.62,0,11.98-1.99,16.08-5.96,4.1-3.91,6.15-9.03,6.15-15.34s-2.05-11.41-6.15-15.39c-4.13-3.94-9.49-5.92-16.08-5.92h-11.55Z"/>
      <path class="cls-1" d="m610.55,651.7v38.73h-14v-72.05l35.17,38.73,35.21-38.73v72.05h-14v-38.73l-21.21,23.85-21.17-23.85Z"/>
      <path class="cls-1" d="m709.4,618.38l35.68,72.05h-16.08l-5.5-11.74h-28.01l-5.5,11.74h-16.08l35.49-72.05Zm0,28.88l-9.01,19.5h18.02l-9.01-19.5Z"/>
      <path class="cls-1" d="m800.07,619.99h14v72.05l-47.97-42.98v41.36h-14v-72.05l47.97,42.98v-41.36Z"/>
    </g>
    <g>
      <g>
        <polygon class="cls-1" points="394.98 513.95 394.98 466.64 374.6 466.64 374.6 534.33 509.42 534.33 493.2 513.95 394.98 513.95"/>
        <polygon class="cls-1" points="629.02 279.91 629.02 327.22 649.4 327.22 649.4 259.53 514.58 259.53 530.8 279.91 629.02 279.91"/>
        <polygon class="cls-1" points="394.98 313.89 394.98 281.18 395.99 279.91 422.03 279.91 458.3 279.91 442.08 259.53 438.25 259.53 412.21 259.53 374.6 259.53 374.6 306.77 374.6 327.22 394.98 327.22 394.98 313.89"/>
        <polygon class="cls-1" points="629.02 479.98 629.02 512.69 628.01 513.95 601.97 513.95 565.7 513.95 581.92 534.33 585.75 534.33 611.79 534.33 649.4 534.33 649.4 487.1 649.4 466.64 629.02 466.64 629.02 479.98"/>
      </g>
      <path class="cls-2" d="m689.99,327.22h-121.52l-37.67-47.31-16.22-20.37-32.32-40.59h-43.2l86.21,108.28h-180.74l30.08,37.78,20.37,25.59,33.64,42.25h-94.61v33.8h60.97s60.55,0,60.55,0l37.67,47.31,16.22,20.37,32.32,40.59h43.2l-86.21-108.28h180.74l-30.08-37.78-20.37-25.59-33.64-42.25h94.61v-33.8Zm-80.63,105.62h-137.54l-57.18-71.82h137.54l57.18,71.82Z"/>
    </g>
    <g>
      <path class="cls-1" d="m344.19,804.92c-4.78,0-9.44-.75-14-2.24-4.56-1.49-8.67-3.61-12.34-6.35l7.12-11.83c3.54,2.47,6.82,4.25,9.82,5.36,3,1.11,6.14,1.66,9.4,1.66,3.54,0,6.32-.67,8.32-2.01,2-1.34,3-3.2,3-5.57s-.94-4.22-2.82-5.64c-1.85-1.42-5.31-2.82-10.4-4.21-7.79-2.13-13.34-4.79-16.64-7.99-3.3-3.2-4.94-7.49-4.94-12.85,0-6.1,2.29-11.08,6.89-14.93,4.56-3.79,10.58-5.68,18.07-5.68,8.38,0,16.05,2.14,23.01,6.42l-6.89,11.83c-5.52-3.2-10.81-4.81-15.9-4.81-3.23,0-5.8.58-7.69,1.73-1.89,1.16-2.84,2.72-2.84,4.69s.92,3.67,2.77,4.9c1.79,1.23,5.31,2.66,10.58,4.3,7.46,2.25,12.92,5.12,16.38,8.62,3.47,3.5,5.2,7.85,5.2,13.06,0,6.44-2.39,11.63-7.16,15.57-4.81,3.97-11.12,5.96-18.95,5.96Z"/>
      <path class="cls-1" d="m409.26,747.48v56.52h-14.37v-56.52h-20.57v-13.91h55.5v13.91h-20.57Z"/>
      <path class="cls-1" d="m488.7,797.39c-5.33,5.11-12.57,7.67-21.72,7.67s-16.38-2.56-21.67-7.67c-5.36-5.15-8.04-12.06-8.04-20.75v-43.07h14.42v42.7c0,4.56,1.36,8.13,4.07,10.72,2.71,2.62,6.45,3.93,11.23,3.93s8.56-1.31,11.28-3.93c2.71-2.59,4.07-6.16,4.07-10.72v-42.7h14.37v43.07c0,8.69-2.67,15.6-8,20.75Z"/>
      <path class="cls-1" d="m510.23,804v-70.43h23.94c5.7,0,10.98.84,15.83,2.52,4.85,1.68,8.99,4.06,12.41,7.14,3.42,3.08,6.06,6.82,7.93,11.21,1.86,4.39,2.8,9.17,2.8,14.35s-.93,9.96-2.8,14.35c-1.86,4.39-4.51,8.13-7.93,11.21-3.42,3.08-7.56,5.46-12.41,7.14-4.85,1.68-10.13,2.52-15.83,2.52h-23.94Zm14.37-56.52v42.61h11.55c6.62,0,11.98-1.99,16.08-5.96,4.1-3.91,6.15-9.03,6.15-15.34s-2.05-11.41-6.15-15.39c-4.13-3.94-9.49-5.92-16.08-5.92h-11.55Z"/>
      <path class="cls-1" d="m598.69,733.57v70.43h-14.37v-70.43h14.37Z"/>
      <path class="cls-1" d="m660.47,802.1c-4.44,1.88-9.2,2.82-14.28,2.82s-9.84-.94-14.28-2.82c-9-3.73-15.41-10.1-19.22-19.13-1.91-4.53-2.87-9.26-2.87-14.19s.94-9.75,2.82-14.19c3.79-9,10.2-15.37,19.23-19.13,4.44-1.88,9.21-2.82,14.33-2.82s9.86.92,14.33,2.77c9,3.73,15.39,10.11,19.18,19.13,1.88,4.44,2.82,9.18,2.82,14.23s-.94,9.8-2.82,14.23c-3.79,9.03-10.2,15.39-19.23,19.09Zm-14.28-11.37c6.13,0,11.25-2.09,15.34-6.29,4.07-4.16,6.1-9.38,6.1-15.67s-2.02-11.49-6.05-15.71c-4.07-4.16-9.2-6.24-15.39-6.24s-11.32,2.08-15.39,6.24c-4.07,4.19-6.1,9.43-6.1,15.71s2.05,11.54,6.15,15.67c4.07,4.19,9.18,6.29,15.34,6.29Z"/>
      <path class="cls-1" d="m699.08,746.67c-1.98,0-3.66-.68-5.04-2.04-1.37-1.35-2.05-3.01-2.05-4.99s.7-3.6,2.09-4.97c1.39-1.36,3.06-2.04,5-2.04s3.68.67,5.04,2.02c1.36,1.36,2.04,3.02,2.04,4.99s-.68,3.63-2.04,4.99c-1.36,1.36-3.04,2.04-5.04,2.04Zm.04-1.98c1.4,0,2.58-.48,3.53-1.44.94-.96,1.4-2.16,1.4-3.6s-.47-2.64-1.4-3.62c-.95-.95-2.12-1.42-3.53-1.42s-2.58.48-3.53,1.44c-.96.96-1.44,2.16-1.44,3.6s.47,2.65,1.42,3.6c.92.96,2.11,1.44,3.55,1.44Zm-.79-3.53v1.88h-1.72v-7.16h2.4c.89,0,1.62.25,2.19.75.57.5.86,1.15.86,1.95,0,.9-.35,1.6-1.05,2.09l1.26,2.37h-2.02l-.86-1.88h-1.07Zm.93-3.63h-.93v2.05h.93c.3,0,.56-.09.75-.28.2-.19.3-.43.3-.72s-.1-.56-.31-.75c-.2-.2-.45-.3-.75-.3Z"/>
    </g>
  </g>
</svg>