<?xml version="1.0" encoding="UTF-8"?>
<svg id="Layer_1" data-name="Layer 1" xmlns="http://www.w3.org/2000/svg" viewBox="0 0 4095 2303">
  <defs>
    <style>
      .cls-1 {
        fill: #fff;
      }

      .cls-2 {
        stroke: #ccff31;
      }

      .cls-2, .cls-3 {
        fill: none;
        stroke-miterlimit: 10;
      }

      .cls-4 {
        opacity: .3;
      }

      .cls-5 {
        fill: #ccff31;
      }

      .cls-3 {
        stroke: #fff;
        stroke-width: 1.6px;
      }

      .cls-6 {
        opacity: .3;
      }
    </style>
  </defs>
  <rect x="-17.78" y="-55.18" width="4192.53" height="4105.26"/>
  <g class="cls-4">
    <path class="cls-2" d="m82.47,2564.92v341.62H-41.05v-635.54l310.23,341.62,310.64-341.62v635.54h-123.52v-341.62l-187.11,210.35-186.71-210.35Z"/>
    <path class="cls-2" d="m703.34,2285.26h404.81v121.89h-278.03v125.15h246.23v115.37h-246.23v136.98h278.03v121.89h-404.81v-621.28Z"/>
    <path class="cls-2" d="m1477.49,2407.97v498.57h-126.78v-498.57h-181.41v-122.7h489.6v122.7h-181.41Z"/>
    <path class="cls-2" d="m1918.18,2270.99l314.71,635.54h-141.87l-48.51-103.55h-247.05l-48.51,103.55h-141.87l313.08-635.54Zm0,254.79l-79.49,172.03h158.99l-79.49-172.03Z"/>
    <path class="cls-2" d="m2418.38,2564.92v341.62h-123.52v-635.54l310.23,341.62,310.64-341.62v635.54h-123.52v-341.62l-187.11,210.35-186.71-210.35Z"/>
    <path class="cls-2" d="m3290.37,2270.99l314.72,635.54h-141.87l-48.51-103.55h-247.04l-48.51,103.55h-141.87l313.08-635.54Zm0,254.79l-79.49,172.03h158.99l-79.49-172.03Z"/>
    <path class="cls-2" d="m3667.05,2906.54v-621.28h211.17c50.28,0,96.82,7.41,139.62,22.22,42.81,14.82,79.29,35.81,109.46,62.98,30.16,27.18,53.46,60.13,69.91,98.86,16.44,38.73,24.66,80.92,24.66,126.58s-8.22,87.85-24.66,126.58c-16.45,38.73-39.75,71.68-69.91,98.86-30.17,27.18-66.65,48.17-109.46,62.98-42.8,14.82-89.35,22.22-139.62,22.22h-211.17Zm126.78-498.57v375.87h101.91c58.43,0,105.72-17.53,141.87-52.59,36.14-34.51,54.22-79.63,54.22-135.35s-18.08-100.69-54.22-135.75c-36.42-34.79-83.71-52.18-141.87-52.18h-101.91Z"/>
  </g>
  <rect class="cls-5" x="-41.05" y="2128.13" width="4262.92" height="206.28"/>
  <rect class="cls-5" x="-105.29" y="-34.91" width="4373.15" height="206.28"/>
  <g>
    <g>
      <path class="cls-1" d="m1893.03,997.02h23.58v121.34l-80.79-72.38v69.66h-23.58v-121.34l80.79,72.38v-69.66Z"/>
      <path class="cls-1" d="m2020.68,1112.44c-7.47,3.17-15.49,4.75-24.05,4.75s-16.58-1.58-24.05-4.75c-15.15-6.28-25.94-17.02-32.38-32.22-3.22-7.63-4.83-15.59-4.83-23.89s1.58-16.42,4.75-23.89c6.38-15.15,17.17-25.89,32.38-32.22,7.47-3.16,15.51-4.75,24.13-4.75s16.6,1.56,24.13,4.67c15.15,6.28,25.92,17.02,32.3,32.22,3.16,7.47,4.75,15.46,4.75,23.97s-1.58,16.5-4.75,23.97c-6.38,15.2-17.17,25.92-32.38,32.14Zm-24.05-19.15c10.33,0,18.94-3.53,25.84-10.58,6.85-7.01,10.27-15.8,10.27-26.39s-3.4-19.35-10.2-26.46c-6.85-7.01-15.49-10.51-25.92-10.51s-19.07,3.5-25.92,10.51c-6.85,7.06-10.27,15.88-10.27,26.46s3.45,19.43,10.35,26.39c6.85,7.06,15.46,10.58,25.84,10.58Z"/>
      <path class="cls-1" d="m2100.22,1050.41v65.22h-23.58v-121.34l59.23,65.22,59.31-65.22v121.34h-23.58v-65.22l-35.72,40.16-35.65-40.16Z"/>
      <path class="cls-1" d="m2266.71,994.29l60.09,121.34h-27.09l-9.26-19.77h-47.17l-9.26,19.77h-27.09l59.78-121.34Zm0,48.65l-15.18,32.84h30.35l-15.18-32.84Z"/>
      <path class="cls-1" d="m2338.63,1115.63v-118.62h40.32c9.6,0,18.48,1.41,26.66,4.24,8.17,2.83,15.14,6.84,20.9,12.02,5.76,5.19,10.21,11.48,13.35,18.87,3.14,7.39,4.71,15.45,4.71,24.17s-1.57,16.77-4.71,24.17c-3.14,7.39-7.59,13.69-13.35,18.87-5.76,5.19-12.72,9.2-20.9,12.02-8.17,2.83-17.06,4.24-26.66,4.24h-40.32Zm24.21-95.19v71.76h19.46c11.16,0,20.18-3.35,27.09-10.04,6.9-6.59,10.35-15.2,10.35-25.84s-3.45-19.22-10.35-25.92c-6.95-6.64-15.98-9.96-27.09-9.96h-19.46Z"/>
      <path class="cls-1" d="m2486.97,1050.41v65.22h-23.58v-121.34l59.23,65.22,59.31-65.22v121.34h-23.58v-65.22l-35.73,40.16-35.65-40.16Z"/>
      <path class="cls-1" d="m2653.46,994.29l60.09,121.34h-27.09l-9.26-19.77h-47.17l-9.26,19.77h-27.09l59.78-121.34Zm0,48.65l-15.18,32.84h30.35l-15.18-32.84Z"/>
      <path class="cls-1" d="m2806.17,997.02h23.58v121.34l-80.79-72.38v69.66h-23.58v-121.34l80.79,72.38v-69.66Z"/>
      <path class="cls-1" d="m1849.21,1308.47c-8.04,0-15.9-1.26-23.58-3.77-7.68-2.52-14.61-6.08-20.78-10.7l11.99-19.92c5.97,4.15,11.48,7.16,16.54,9.03,5.06,1.87,10.34,2.8,15.84,2.8,5.97,0,10.64-1.13,14.01-3.39,3.37-2.26,5.06-5.38,5.06-9.38s-1.58-7.11-4.75-9.5c-3.11-2.39-8.95-4.75-17.51-7.08-13.13-3.58-22.47-8.07-28.02-13.46-5.55-5.4-8.33-12.61-8.33-21.64,0-10.27,3.86-18.65,11.6-25.14,7.68-6.38,17.82-9.57,30.43-9.57,14.11,0,27.03,3.61,38.76,10.82l-11.6,19.93c-9.29-5.4-18.21-8.09-26.77-8.09-5.45,0-9.77.97-12.96,2.92-3.19,1.95-4.79,4.58-4.79,7.9s1.56,6.18,4.67,8.25c3.01,2.08,8.95,4.49,17.82,7.24,12.56,3.79,21.75,8.63,27.59,14.52,5.84,5.89,8.76,13.22,8.76,21.99,0,10.85-4.02,19.59-12.06,26.23-8.09,6.69-18.73,10.04-31.91,10.04Z"/>
      <path class="cls-1" d="m1958.8,1211.73v95.19h-24.21v-95.19h-34.64v-23.43h93.48v23.43h-34.64Z"/>
      <path class="cls-1" d="m2092.6,1295.79c-8.98,8.61-21.17,12.92-36.58,12.92s-27.58-4.31-36.5-12.92c-9.03-8.67-13.54-20.31-13.54-34.95v-72.54h24.28v71.92c0,7.68,2.28,13.7,6.85,18.06,4.57,4.41,10.87,6.62,18.91,6.62s14.42-2.2,18.99-6.62c4.57-4.36,6.85-10.38,6.85-18.06v-71.92h24.21v72.54c0,14.63-4.49,26.28-13.47,34.95Z"/>
      <path class="cls-1" d="m2128.87,1306.92v-118.62h40.32c9.6,0,18.48,1.41,26.66,4.24,8.17,2.83,15.14,6.84,20.9,12.03,5.76,5.19,10.21,11.48,13.35,18.87,3.14,7.39,4.71,15.45,4.71,24.17s-1.57,16.77-4.71,24.17c-3.14,7.39-7.59,13.69-13.35,18.87-5.76,5.19-12.73,9.2-20.9,12.03-8.17,2.83-17.06,4.24-26.66,4.24h-40.32Zm24.21-95.19v71.76h19.46c11.16,0,20.18-3.35,27.09-10.04,6.9-6.59,10.35-15.2,10.35-25.84s-3.45-19.22-10.35-25.92c-6.95-6.64-15.98-9.96-27.09-9.96h-19.46Z"/>
      <path class="cls-1" d="m2277.84,1188.3v118.62h-24.21v-118.62h24.21Z"/>
      <path class="cls-1" d="m2381.9,1303.73c-7.47,3.17-15.49,4.75-24.05,4.75s-16.58-1.58-24.05-4.75c-15.15-6.28-25.95-17.02-32.38-32.22-3.22-7.63-4.83-15.59-4.83-23.89s1.58-16.42,4.75-23.89c6.38-15.15,17.17-25.89,32.38-32.22,7.47-3.16,15.51-4.75,24.13-4.75s16.6,1.56,24.13,4.67c15.15,6.28,25.92,17.02,32.3,32.22,3.16,7.47,4.75,15.46,4.75,23.97s-1.58,16.5-4.75,23.97c-6.38,15.2-17.18,25.92-32.38,32.14Zm-24.05-19.15c10.33,0,18.94-3.53,25.84-10.59,6.85-7,10.27-15.8,10.27-26.39s-3.4-19.35-10.2-26.46c-6.85-7-15.49-10.51-25.92-10.51s-19.07,3.5-25.92,10.51c-6.85,7.06-10.27,15.88-10.27,26.46s3.45,19.43,10.35,26.39c6.85,7.06,15.46,10.59,25.84,10.59Z"/>
    </g>
    <g>
      <g>
        <polygon class="cls-1" points="1346.15 1306.77 1346.15 1243.99 1319.11 1243.99 1319.11 1333.8 1497.99 1333.8 1476.47 1306.77 1346.15 1306.77"/>
        <polygon class="cls-1" points="1656.69 996.23 1656.69 1059.01 1683.72 1059.01 1683.72 969.2 1504.84 969.2 1526.36 996.23 1656.69 996.23"/>
        <polygon class="cls-1" points="1346.15 1041.31 1346.15 997.91 1347.49 996.23 1382.04 996.23 1430.16 996.23 1408.64 969.2 1403.56 969.2 1369.01 969.2 1319.11 969.2 1319.11 1031.87 1319.11 1059.01 1346.15 1059.01 1346.15 1041.31"/>
        <polygon class="cls-1" points="1656.69 1261.69 1656.69 1305.09 1655.35 1306.77 1620.79 1306.77 1572.67 1306.77 1594.19 1333.8 1599.27 1333.8 1633.82 1333.8 1683.72 1333.8 1683.72 1271.13 1683.72 1243.99 1656.69 1243.99 1656.69 1261.69"/>
      </g>
      <path class="cls-5" d="m1737.58,1059.01h-161.24l-49.98-62.78-21.52-27.03-42.88-53.86h-57.32l114.39,143.67h-239.81l39.91,50.12,27.03,33.95,44.63,56.06h-125.53v44.85h80.9s80.34,0,80.34,0l49.98,62.78,21.52,27.03,42.88,53.86h57.33l-114.39-143.67h239.81l-39.91-50.12-27.03-33.95-44.63-56.06h125.53v-44.85Zm-106.99,140.14h-182.49l-75.87-95.29h182.49l75.87,95.29Z"/>
    </g>
    <path class="cls-1" d="m2446.92,1210.36c-3.33,0-6.16-1.14-8.49-3.43-2.31-2.27-3.46-5.06-3.46-8.4s1.17-6.06,3.52-8.37c2.35-2.29,5.15-3.43,8.43-3.43s6.2,1.13,8.49,3.4c2.29,2.29,3.43,5.09,3.43,8.4s-1.14,6.11-3.43,8.4c-2.29,2.29-5.11,3.43-8.49,3.43Zm.06-3.34c2.36,0,4.35-.81,5.94-2.42,1.58-1.62,2.37-3.64,2.37-6.06s-.79-4.45-2.37-6.09c-1.6-1.6-3.58-2.39-5.94-2.39s-4.35.81-5.94,2.42c-1.62,1.62-2.42,3.64-2.42,6.06s.8,4.46,2.39,6.06c1.56,1.62,3.55,2.42,5.97,2.42Zm-1.33-5.94v3.16h-2.9v-12.06h4.05c1.5,0,2.73.42,3.7,1.27.97.85,1.45,1.94,1.45,3.28,0,1.52-.59,2.69-1.77,3.52l2.13,3.99h-3.4l-1.45-3.16h-1.8Zm1.57-6.12h-1.57v3.46h1.57c.51,0,.94-.16,1.27-.47.34-.31.5-.72.5-1.21s-.17-.94-.52-1.27c-.34-.33-.76-.5-1.26-.5Z"/>
  </g>
  <g class="cls-6">
    <path class="cls-3" d="m157.36,879.83h104.16v535.92l-356.82-319.69v307.66h-104.16v-535.92l356.82,319.69v-307.66Z"/>
    <path class="cls-3" d="m721.12,1389.62c-33,13.98-68.41,20.97-106.22,20.97s-73.22-6.99-106.22-20.97c-66.92-27.72-114.59-75.16-143-142.31-14.21-33.69-21.31-68.86-21.31-105.53s6.99-72.53,20.97-105.53c28.19-66.91,75.85-114.35,143-142.31,33-13.98,68.52-20.97,106.56-20.97s73.33,6.87,106.56,20.62c66.92,27.73,114.47,75.17,142.66,142.32,13.98,33,20.97,68.29,20.97,105.88s-6.99,72.88-20.97,105.88c-28.19,67.15-75.85,114.47-143,141.97Zm-106.22-84.56c45.6,0,83.65-15.58,114.13-46.75,30.25-30.94,45.37-69.78,45.37-116.53s-15.01-85.48-45.03-116.88c-30.25-30.94-68.41-46.41-114.47-46.41s-84.22,15.47-114.47,46.41c-30.25,31.17-45.38,70.13-45.38,116.88s15.24,85.82,45.72,116.53c30.25,31.17,68.29,46.75,114.13,46.75Z"/>
    <path class="cls-3" d="m1072.44,1115.65v288.07h-104.16v-535.92l261.6,288.07,261.94-288.07v535.92h-104.16v-288.07l-157.78,177.37-157.44-177.37Z"/>
    <path class="cls-3" d="m1807.73,867.8l265.38,535.92h-119.63l-40.91-87.31h-208.31l-40.91,87.31h-119.63l264-535.92Zm0,214.85l-67.03,145.06h134.07l-67.03-145.06Z"/>
    <path class="cls-3" d="m2125.36,1403.71v-523.88h178.06c42.39,0,81.64,6.25,117.74,18.74,36.1,12.49,66.86,30.2,92.3,53.11,25.44,22.92,45.08,50.7,58.95,83.36,13.86,32.66,20.8,68.23,20.8,106.74s-6.93,74.08-20.8,106.74c-13.87,32.66-33.51,60.45-58.95,83.36-25.44,22.92-56.2,40.62-92.3,53.11-36.1,12.49-75.34,18.74-117.74,18.74h-178.06Zm106.91-420.41v316.94h85.94c49.27,0,89.15-14.78,119.63-44.34,30.47-29.1,45.72-67.15,45.72-114.13s-15.25-84.91-45.72-114.47c-30.71-29.33-70.59-44-119.63-44h-85.94Z"/>
    <path class="cls-3" d="m2780.56,1115.65v288.07h-104.16v-535.92l261.6,288.07,261.94-288.07v535.92h-104.16v-288.07l-157.79,177.37-157.44-177.37Z"/>
    <path class="cls-3" d="m3515.85,867.8l265.38,535.92h-119.63l-40.91-87.31h-208.31l-40.91,87.31h-119.63l264-535.92Zm0,214.85l-67.03,145.06h134.07l-67.03-145.06Z"/>
    <path class="cls-3" d="m4190.3,879.83h104.16v535.92l-356.82-319.69v307.66h-104.16v-535.92l356.82,319.69v-307.66Z"/>
  </g>
</svg>