<?xml version="1.0" encoding="UTF-8"?>
<svg id="Layer_1" data-name="Layer 1" xmlns="http://www.w3.org/2000/svg" viewBox="0 0 1024 1024">
  <defs>
    <style>
      .cls-1 {
        fill: #fff;
      }

      .cls-2 {
        fill: #ccff31;
      }
    </style>
  </defs>
  <rect x="-41.19" y="-17.89" width="1100.12" height="1077.22"/>
  <g>
    <g>
      <path class="cls-1" d="m431.85,431.84h12.24v62.96l-41.92-37.56v36.15h-12.24v-62.96l41.92,37.56v-36.15Z"/>
      <path class="cls-1" d="m498.08,491.73c-3.88,1.64-8.04,2.46-12.48,2.46s-8.6-.82-12.48-2.46c-7.86-3.26-13.46-8.83-16.8-16.72-1.67-3.96-2.5-8.09-2.5-12.4s.82-8.52,2.46-12.4c3.31-7.86,8.91-13.43,16.8-16.72,3.88-1.64,8.05-2.46,12.52-2.46s8.62.81,12.52,2.42c7.86,3.26,13.45,8.83,16.76,16.72,1.64,3.88,2.46,8.02,2.46,12.44s-.82,8.56-2.46,12.44c-3.31,7.89-8.91,13.45-16.8,16.68Zm-12.48-9.93c5.36,0,9.83-1.83,13.41-5.49,3.55-3.63,5.33-8.2,5.33-13.69s-1.76-10.04-5.29-13.73c-3.55-3.63-8.04-5.45-13.45-5.45s-9.89,1.82-13.45,5.45c-3.55,3.66-5.33,8.24-5.33,13.73s1.79,10.08,5.37,13.69c3.55,3.66,8.02,5.49,13.41,5.49Z"/>
      <path class="cls-1" d="m539.36,459.55v33.84h-12.24v-62.96l30.73,33.84,30.77-33.84v62.96h-12.24v-33.84l-18.54,20.84-18.5-20.84Z"/>
      <path class="cls-1" d="m625.74,430.43l31.18,62.96h-14.05l-4.81-10.26h-24.47l-4.81,10.26h-14.05l31.02-62.96Zm0,25.24l-7.88,17.04h15.75l-7.88-17.04Z"/>
      <path class="cls-1" d="m663.06,493.39v-61.55h20.92c4.98,0,9.59.73,13.83,2.2,4.24,1.47,7.85,3.55,10.84,6.24,2.99,2.69,5.3,5.96,6.93,9.79,1.63,3.84,2.44,8.02,2.44,12.54s-.81,8.7-2.44,12.54c-1.63,3.84-3.94,7.1-6.93,9.79-2.99,2.69-6.6,4.77-10.84,6.24-4.24,1.47-8.85,2.2-13.83,2.2h-20.92Zm12.56-49.39v37.24h10.1c5.79,0,10.47-1.74,14.05-5.21,3.58-3.42,5.37-7.89,5.37-13.41s-1.79-9.98-5.37-13.45c-3.61-3.45-8.29-5.17-14.05-5.17h-10.1Z"/>
      <path class="cls-1" d="m740.04,459.55v33.84h-12.24v-62.96l30.73,33.84,30.77-33.84v62.96h-12.24v-33.84l-18.54,20.84-18.5-20.84Z"/>
      <path class="cls-1" d="m826.42,430.43l31.18,62.96h-14.05l-4.81-10.26h-24.47l-4.81,10.26h-14.05l31.02-62.96Zm0,25.24l-7.88,17.04h15.75l-7.88-17.04Z"/>
      <path class="cls-1" d="m905.66,431.84h12.24v62.96l-41.92-37.56v36.15h-12.24v-62.96l41.92,37.56v-36.15Z"/>
      <path class="cls-1" d="m409.11,593.45c-4.17,0-8.25-.65-12.24-1.96-3.98-1.31-7.58-3.16-10.78-5.55l6.22-10.34c3.1,2.15,5.96,3.72,8.58,4.68,2.62.97,5.36,1.45,8.22,1.45,3.1,0,5.52-.59,7.27-1.76,1.75-1.17,2.63-2.79,2.63-4.87s-.82-3.69-2.46-4.93c-1.62-1.24-4.64-2.46-9.09-3.68-6.81-1.86-11.66-4.19-14.54-6.99-2.88-2.8-4.32-6.54-4.32-11.23,0-5.33,2.01-9.68,6.02-13.04,3.98-3.31,9.25-4.97,15.79-4.97,7.32,0,14.03,1.87,20.11,5.61l-6.02,10.34c-4.82-2.8-9.45-4.2-13.89-4.2-2.83,0-5.07.5-6.72,1.51-1.66,1.01-2.48,2.38-2.48,4.1s.81,3.2,2.42,4.28c1.56,1.08,4.64,2.33,9.25,3.76,6.52,1.97,11.29,4.48,14.32,7.53,3.03,3.06,4.54,6.86,4.54,11.41,0,5.63-2.09,10.16-6.26,13.61-4.2,3.47-9.72,5.21-16.56,5.21Z"/>
      <path class="cls-1" d="m465.98,543.25v49.39h-12.56v-49.39h-17.97v-12.16h48.5v12.16h-17.97Z"/>
      <path class="cls-1" d="m535.4,586.87c-4.66,4.47-10.99,6.7-18.98,6.7s-14.31-2.23-18.94-6.7c-4.68-4.5-7.03-10.54-7.03-18.13v-37.64h12.6v37.32c0,3.98,1.18,7.11,3.55,9.37,2.37,2.29,5.64,3.43,9.81,3.43s7.48-1.14,9.85-3.43c2.37-2.26,3.55-5.38,3.55-9.37v-37.32h12.56v37.64c0,7.59-2.33,13.64-6.99,18.13Z"/>
      <path class="cls-1" d="m554.22,592.64v-61.55h20.92c4.98,0,9.59.73,13.83,2.2,4.24,1.47,7.85,3.55,10.84,6.24,2.99,2.69,5.3,5.96,6.93,9.79,1.63,3.84,2.44,8.02,2.44,12.54s-.81,8.7-2.44,12.54c-1.63,3.84-3.94,7.1-6.93,9.79-2.99,2.69-6.6,4.77-10.84,6.24-4.24,1.47-8.85,2.2-13.83,2.2h-20.92Zm12.56-49.39v37.24h10.1c5.79,0,10.47-1.74,14.05-5.21,3.58-3.42,5.37-7.89,5.37-13.41s-1.79-9.98-5.37-13.45c-3.61-3.45-8.29-5.17-14.05-5.17h-10.1Z"/>
      <path class="cls-1" d="m631.52,531.09v61.55h-12.56v-61.55h12.56Z"/>
      <path class="cls-1" d="m685.51,590.99c-3.88,1.64-8.04,2.46-12.48,2.46s-8.6-.82-12.48-2.46c-7.86-3.26-13.46-8.83-16.8-16.72-1.67-3.96-2.5-8.09-2.5-12.4s.82-8.52,2.46-12.4c3.31-7.86,8.91-13.43,16.8-16.72,3.88-1.64,8.05-2.46,12.52-2.46s8.62.81,12.52,2.42c7.86,3.26,13.45,8.83,16.76,16.72,1.64,3.88,2.46,8.02,2.46,12.44s-.82,8.56-2.46,12.44c-3.31,7.89-8.91,13.45-16.8,16.68Zm-12.48-9.93c5.36,0,9.83-1.83,13.41-5.49,3.55-3.63,5.33-8.2,5.33-13.69s-1.76-10.04-5.29-13.73c-3.55-3.63-8.04-5.45-13.45-5.45s-9.89,1.82-13.45,5.45c-3.55,3.66-5.33,8.24-5.33,13.73s1.79,10.08,5.37,13.69c3.55,3.66,8.02,5.49,13.41,5.49Z"/>
    </g>
    <g>
      <g>
        <polygon class="cls-1" points="148.08 592.57 148.08 559.99 134.05 559.99 134.05 606.59 226.87 606.59 215.7 592.57 148.08 592.57"/>
        <polygon class="cls-1" points="309.21 431.43 309.21 464.01 323.24 464.01 323.24 417.41 230.42 417.41 241.59 431.43 309.21 431.43"/>
        <polygon class="cls-1" points="148.08 454.83 148.08 432.31 148.77 431.43 166.7 431.43 191.67 431.43 180.51 417.41 177.87 417.41 159.94 417.41 134.05 417.41 134.05 449.92 134.05 464.01 148.08 464.01 148.08 454.83"/>
        <polygon class="cls-1" points="309.21 569.17 309.21 591.69 308.52 592.57 290.59 592.57 265.62 592.57 276.79 606.59 279.42 606.59 297.35 606.59 323.24 606.59 323.24 574.08 323.24 559.99 309.21 559.99 309.21 569.17"/>
      </g>
      <path class="cls-2" d="m351.19,464.01h-83.66l-25.94-32.57-11.17-14.03-22.25-27.95h-29.74l59.36,74.55h-124.44l20.71,26.01,14.03,17.62,23.16,29.09h-65.14v23.27h41.98s41.69,0,41.69,0l25.94,32.57,11.17,14.03,22.25,27.95h29.75l-59.36-74.55h124.44l-20.71-26.01-14.03-17.62-23.16-29.09h65.14v-23.27Zm-55.51,72.71h-94.69l-39.37-49.44h94.69l39.37,49.44Z"/>
    </g>
    <path class="cls-1" d="m719.25,542.54c-1.73,0-3.2-.59-4.4-1.78-1.2-1.18-1.79-2.63-1.79-4.36s.61-3.14,1.83-4.34c1.22-1.19,2.67-1.78,4.37-1.78s3.22.59,4.4,1.76c1.19,1.19,1.78,2.64,1.78,4.36s-.59,3.17-1.78,4.36c-1.19,1.19-2.65,1.78-4.4,1.78Zm.03-1.73c1.23,0,2.26-.42,3.08-1.26.82-.84,1.23-1.89,1.23-3.14s-.41-2.31-1.23-3.16c-.83-.83-1.86-1.24-3.08-1.24s-2.26.42-3.08,1.26c-.84.84-1.26,1.89-1.26,3.14s.41,2.32,1.24,3.14c.81.84,1.84,1.26,3.1,1.26Zm-.69-3.08v1.64h-1.5v-6.26h2.1c.78,0,1.42.22,1.92.66.5.44.75,1.01.75,1.7,0,.79-.31,1.4-.92,1.83l1.1,2.07h-1.76l-.75-1.64h-.94Zm.81-3.18h-.81v1.8h.81c.27,0,.49-.08.66-.25.17-.16.26-.37.26-.63s-.09-.49-.27-.66c-.18-.17-.4-.26-.65-.26Z"/>
  </g>
</svg>