<?xml version="1.0" encoding="UTF-8"?>
<svg id="Layer_1" data-name="Layer 1" xmlns="http://www.w3.org/2000/svg" viewBox="0 0 1024 1024">
  <defs>
    <style>
      .cls-1 {
        fill: #fff;
      }

      .cls-2 {
        fill: #ccff31;
      }
    </style>
  </defs>
  <rect x="-41.19" y="-17.89" width="1100.12" height="1077.22"/>
  <g>
    <g>
      <polygon class="cls-1" points="277.23 746.77 277.23 651.85 236.36 651.85 236.36 787.64 506.82 787.64 474.28 746.77 277.23 746.77"/>
      <polygon class="cls-1" points="746.77 277.23 746.77 372.15 787.64 372.15 787.64 236.36 517.18 236.36 549.72 277.23 746.77 277.23"/>
      <polygon class="cls-1" points="277.23 345.4 277.23 279.77 279.26 277.23 331.5 277.23 404.27 277.23 371.72 236.36 364.05 236.36 311.8 236.36 236.36 236.36 236.36 331.11 236.36 372.15 277.23 372.15 277.23 345.4"/>
      <polygon class="cls-1" points="746.77 678.6 746.77 744.23 744.74 746.77 692.5 746.77 619.73 746.77 652.28 787.64 659.95 787.64 712.2 787.64 787.64 787.64 787.64 692.89 787.64 651.85 746.77 651.85 746.77 678.6"/>
    </g>
    <path class="cls-2" d="m869.08,372.15h-243.79l-75.57-94.92-32.54-40.87-64.84-81.44h-86.68l172.96,217.24H176.02l60.34,75.79,40.87,51.34,67.49,84.76h-189.8v67.81h122.32s121.47,0,121.47,0l75.57,94.92,32.54,40.87,64.84,81.44h86.68l-172.96-217.24h362.6l-60.34-75.79-40.87-51.34-67.49-84.76h189.8v-67.81Zm-161.77,211.89h-275.93l-114.71-144.08h275.93l114.71,144.08Z"/>
  </g>
</svg>