<?xml version="1.0" encoding="UTF-8"?>
<svg id="Layer_2" data-name="Layer 2" xmlns="http://www.w3.org/2000/svg" viewBox="0 0 1564.5 472.33">
  <g id="Layer_1-2" data-name="Layer 1">
    <g>
      <g>
        <path d="m627.78,81.68h23.58v121.34l-80.79-72.38v69.66h-23.58v-121.34l80.79,72.38v-69.66Z"/>
        <path d="m755.43,197.11c-7.47,3.17-15.49,4.75-24.05,4.75s-16.58-1.58-24.05-4.75c-15.15-6.28-25.94-17.02-32.38-32.22-3.22-7.63-4.83-15.59-4.83-23.89s1.58-16.42,4.75-23.89c6.38-15.15,17.17-25.89,32.38-32.22,7.47-3.16,15.51-4.75,24.13-4.75s16.6,1.56,24.13,4.67c15.15,6.28,25.92,17.02,32.3,32.22,3.16,7.47,4.75,15.46,4.75,23.97s-1.58,16.5-4.75,23.97c-6.38,15.2-17.17,25.92-32.38,32.14Zm-24.05-19.15c10.33,0,18.94-3.53,25.84-10.58,6.85-7.01,10.27-15.8,10.27-26.39s-3.4-19.35-10.2-26.46c-6.85-7.01-15.49-10.51-25.92-10.51s-19.07,3.5-25.92,10.51c-6.85,7.06-10.27,15.88-10.27,26.46s3.45,19.43,10.35,26.39c6.85,7.06,15.46,10.58,25.84,10.58Z"/>
        <path d="m834.97,135.08v65.22h-23.58v-121.34l59.23,65.22,59.31-65.22v121.34h-23.58v-65.22l-35.72,40.16-35.65-40.16Z"/>
        <path d="m1001.46,78.96l60.09,121.34h-27.09l-9.26-19.77h-47.17l-9.26,19.77h-27.09l59.78-121.34Zm0,48.65l-15.18,32.84h30.35l-15.18-32.84Z"/>
        <path d="m1073.38,200.3v-118.62h40.32c9.6,0,18.48,1.41,26.66,4.24,8.17,2.83,15.14,6.84,20.9,12.02,5.76,5.19,10.21,11.48,13.35,18.87,3.14,7.39,4.71,15.45,4.71,24.17s-1.57,16.77-4.71,24.17c-3.14,7.39-7.59,13.69-13.35,18.87-5.76,5.19-12.72,9.2-20.9,12.02-8.17,2.83-17.06,4.24-26.66,4.24h-40.32Zm24.21-95.19v71.76h19.46c11.16,0,20.18-3.35,27.09-10.04,6.9-6.59,10.35-15.2,10.35-25.84s-3.45-19.22-10.35-25.92c-6.95-6.64-15.98-9.96-27.09-9.96h-19.46Z"/>
        <path d="m1221.72,135.08v65.22h-23.58v-121.34l59.23,65.22,59.31-65.22v121.34h-23.58v-65.22l-35.73,40.16-35.65-40.16Z"/>
        <path d="m1388.21,78.96l60.09,121.34h-27.09l-9.26-19.77h-47.17l-9.26,19.77h-27.09l59.78-121.34Zm0,48.65l-15.18,32.84h30.35l-15.18-32.84Z"/>
        <path d="m1540.92,81.68h23.58v121.34l-80.79-72.38v69.66h-23.58v-121.34l80.79,72.38v-69.66Z"/>
        <path d="m583.96,393.14c-8.04,0-15.9-1.26-23.58-3.77-7.68-2.52-14.61-6.08-20.78-10.7l11.99-19.92c5.97,4.15,11.48,7.16,16.54,9.03,5.06,1.87,10.34,2.8,15.84,2.8,5.97,0,10.64-1.13,14.01-3.39,3.37-2.26,5.06-5.38,5.06-9.38s-1.58-7.11-4.75-9.5c-3.11-2.39-8.95-4.75-17.51-7.08-13.13-3.58-22.47-8.07-28.02-13.46-5.55-5.4-8.33-12.61-8.33-21.64,0-10.27,3.86-18.65,11.6-25.14,7.68-6.38,17.82-9.57,30.43-9.57,14.11,0,27.03,3.61,38.76,10.82l-11.6,19.93c-9.29-5.4-18.21-8.09-26.77-8.09-5.45,0-9.77.97-12.96,2.92-3.19,1.95-4.79,4.58-4.79,7.9s1.56,6.18,4.67,8.25c3.01,2.08,8.95,4.49,17.82,7.24,12.56,3.79,21.75,8.63,27.59,14.52,5.84,5.89,8.76,13.22,8.76,21.99,0,10.85-4.02,19.59-12.06,26.23-8.09,6.69-18.73,10.04-31.91,10.04Z"/>
        <path d="m693.55,296.39v95.19h-24.21v-95.19h-34.64v-23.43h93.48v23.43h-34.64Z"/>
        <path d="m827.35,380.45c-8.98,8.61-21.17,12.92-36.58,12.92s-27.58-4.31-36.5-12.92c-9.03-8.67-13.54-20.31-13.54-34.95v-72.54h24.28v71.92c0,7.68,2.28,13.7,6.85,18.06,4.57,4.41,10.87,6.62,18.91,6.62s14.42-2.2,18.99-6.62c4.57-4.36,6.85-10.38,6.85-18.06v-71.92h24.21v72.54c0,14.63-4.49,26.28-13.47,34.95Z"/>
        <path d="m863.62,391.58v-118.62h40.32c9.6,0,18.48,1.41,26.66,4.24,8.17,2.83,15.14,6.84,20.9,12.03,5.76,5.19,10.21,11.48,13.35,18.87,3.14,7.39,4.71,15.45,4.71,24.17s-1.57,16.77-4.71,24.17c-3.14,7.39-7.59,13.69-13.35,18.87-5.76,5.19-12.73,9.2-20.9,12.03-8.17,2.83-17.06,4.24-26.66,4.24h-40.32Zm24.21-95.19v71.76h19.46c11.16,0,20.18-3.35,27.09-10.04,6.9-6.59,10.35-15.2,10.35-25.84s-3.45-19.22-10.35-25.92c-6.95-6.64-15.98-9.96-27.09-9.96h-19.46Z"/>
        <path d="m1012.59,272.97v118.62h-24.21v-118.62h24.21Z"/>
        <path d="m1116.65,388.39c-7.47,3.17-15.49,4.75-24.05,4.75s-16.58-1.58-24.05-4.75c-15.15-6.28-25.95-17.02-32.38-32.22-3.22-7.63-4.83-15.59-4.83-23.89s1.58-16.42,4.75-23.89c6.38-15.15,17.17-25.89,32.38-32.22,7.47-3.16,15.51-4.75,24.13-4.75s16.6,1.56,24.13,4.67c15.15,6.28,25.92,17.02,32.3,32.22,3.16,7.47,4.75,15.46,4.75,23.97s-1.58,16.5-4.75,23.97c-6.38,15.2-17.18,25.92-32.38,32.14Zm-24.05-19.15c10.33,0,18.94-3.53,25.84-10.59,6.85-7,10.27-15.8,10.27-26.39s-3.4-19.35-10.2-26.46c-6.85-7-15.49-10.51-25.92-10.51s-19.07,3.5-25.92,10.51c-6.85,7.06-10.27,15.88-10.27,26.46s3.45,19.43,10.35,26.39c6.85,7.06,15.46,10.59,25.84,10.59Z"/>
      </g>
      <g>
        <g>
          <polygon points="80.9 391.44 80.9 328.66 53.86 328.66 53.86 418.47 232.74 418.47 211.22 391.44 80.9 391.44"/>
          <polygon points="391.44 80.9 391.44 143.67 418.47 143.67 418.47 53.86 239.59 53.86 261.11 80.9 391.44 80.9"/>
          <polygon points="80.9 125.98 80.9 82.58 82.24 80.9 116.79 80.9 164.91 80.9 143.39 53.86 138.31 53.86 103.76 53.86 53.86 53.86 53.86 116.53 53.86 143.67 80.9 143.67 80.9 125.98"/>
          <polygon points="391.44 346.35 391.44 389.75 390.1 391.44 355.54 391.44 307.42 391.44 328.94 418.47 334.02 418.47 368.57 418.47 418.47 418.47 418.47 355.8 418.47 328.66 391.44 328.66 391.44 346.35"/>
        </g>
        <path d="m472.33,143.67h-161.24l-49.98-62.78-21.52-27.03L196.71,0h-57.32l114.39,143.67H13.96l39.91,50.12,27.03,33.95,44.63,56.06H0v44.85h80.9s80.34,0,80.34,0l49.98,62.78,21.52,27.03,42.88,53.86h57.33l-114.39-143.67h239.81l-39.91-50.12-27.03-33.95-44.63-56.06h125.53v-44.85Zm-106.99,140.14h-182.49l-75.87-95.29h182.49l75.87,95.29Z"/>
      </g>
      <path d="m1181.67,295.03c-3.33,0-6.16-1.14-8.49-3.43-2.31-2.27-3.46-5.06-3.46-8.4s1.17-6.06,3.52-8.37c2.35-2.29,5.15-3.43,8.43-3.43s6.2,1.13,8.49,3.4c2.29,2.29,3.43,5.09,3.43,8.4s-1.14,6.11-3.43,8.4c-2.29,2.29-5.11,3.43-8.49,3.43Zm.06-3.34c2.36,0,4.35-.81,5.94-2.42,1.58-1.62,2.37-3.64,2.37-6.06s-.79-4.45-2.37-6.09c-1.6-1.6-3.58-2.39-5.94-2.39s-4.35.81-5.94,2.42c-1.62,1.62-2.42,3.64-2.42,6.06s.8,4.46,2.39,6.06c1.56,1.62,3.55,2.42,5.97,2.42Zm-1.33-5.94v3.16h-2.9v-12.06h4.05c1.5,0,2.73.42,3.7,1.27.97.85,1.45,1.94,1.45,3.28,0,1.52-.59,2.69-1.77,3.52l2.13,3.99h-3.4l-1.45-3.16h-1.8Zm1.57-6.12h-1.57v3.46h1.57c.51,0,.94-.16,1.27-.47.34-.31.5-.72.5-1.21s-.17-.94-.52-1.27c-.34-.33-.76-.5-1.26-.5Z"/>
    </g>
  </g>
</svg>