<?xml version="1.0" encoding="UTF-8"?>
<svg id="Layer_2" data-name="Layer 2" xmlns="http://www.w3.org/2000/svg" viewBox="0 0 387.69 387.69">
  <defs>
    <style>
      .cls-1 {
        fill: #fff;
      }
    </style>
  </defs>
  <g id="Layer_1-2" data-name="Layer 1">
    <g>
      <g>
        <polygon class="cls-1" points="66.4 321.29 66.4 269.76 44.21 269.76 44.21 343.48 191.04 343.48 173.37 321.29 66.4 321.29"/>
        <polygon class="cls-1" points="321.29 66.4 321.29 117.93 343.48 117.93 343.48 44.21 196.66 44.21 214.32 66.4 321.29 66.4"/>
        <polygon class="cls-1" points="66.4 103.4 66.4 67.78 67.5 66.4 95.86 66.4 135.36 66.4 117.7 44.21 113.53 44.21 85.17 44.21 44.21 44.21 44.21 95.65 44.21 117.93 66.4 117.93 66.4 103.4"/>
        <polygon class="cls-1" points="321.29 284.29 321.29 319.91 320.19 321.29 291.83 321.29 252.33 321.29 270 343.48 274.16 343.48 302.53 343.48 343.48 343.48 343.48 292.04 343.48 269.76 321.29 269.76 321.29 284.29"/>
      </g>
      <path class="cls-1" d="m387.69,117.93h-132.34l-41.03-51.53-17.67-22.19L161.46,0h-47.05l93.89,117.93H11.46l32.76,41.14,22.19,27.87,36.64,46.01H0v36.81h66.4s65.94,0,65.94,0l41.03,51.53,17.67,22.19,35.2,44.21h47.05l-93.89-117.93h196.84l-32.76-41.14-22.19-27.87-36.64-46.01h103.04v-36.81Zm-87.82,115.03h-149.79l-62.27-78.21h149.79l62.27,78.21Z"/>
    </g>
  </g>
</svg>