<?xml version="1.0" standalone="no"?>
<!DOCTYPE svg PUBLIC "-//W3C//DTD SVG 20010904//EN"
 "http://www.w3.org/TR/2001/REC-SVG-20010904/DTD/svg10.dtd">
<svg version="1.0" xmlns="http://www.w3.org/2000/svg"
 width="420.000000pt" height="363.000000pt" viewBox="0 0 420.000000 363.000000"
 preserveAspectRatio="xMidYMid meet">

<g transform="translate(0.000000,363.000000) scale(0.100000,-0.100000)"
fill="#000000" stroke="none">
<path d="M837 3211 c-122 -40 -211 -123 -259 -241 l-23 -55 0 -1340 0 -1340
670 -3 c454 -2 701 1 765 8 267 32 483 163 654 395 14 19 24 11 218 -182 250
-249 266 -258 433 -258 101 0 115 2 170 29 68 34 153 113 183 172 54 105 52
56 52 1473 l0 1311 -712 0 c-446 0 -737 -4 -778 -11 -92 -14 -217 -59 -307
-110 -77 -43 -227 -180 -285 -259 l-26 -35 -198 196 c-237 233 -277 258 -416
265 -64 3 -97 0 -141 -15z m1818 -1539 c154 -236 193 -518 108 -786 -27 -86
-85 -210 -104 -222 -14 -8 -922 896 -1015 1011 -75 92 -143 225 -176 340 -32
112 -32 351 0 467 20 75 77 208 109 257 l15 24 508 -509 c374 -376 519 -528
555 -582z"/>
<path d="M1567 2627 c-138 -292 -104 -636 89 -897 52 -71 933 -961 971 -981
29 -16 30 -14 72 86 42 99 62 210 62 337 0 179 -49 337 -151 489 -45 68 -985
1019 -1006 1019 -6 0 -23 -24 -37 -53z"/>
</g>
</svg>
