<?xml version="1.0" standalone="no"?>
<!DOCTYPE svg PUBLIC "-//W3C//DTD SVG 20010904//EN"
 "http://www.w3.org/TR/2001/REC-SVG-20010904/DTD/svg10.dtd">
<svg version="1.0" xmlns="http://www.w3.org/2000/svg"
 width="2067.000000pt" height="363.000000pt" viewBox="0 0 2067.000000 363.000000"
 preserveAspectRatio="xMidYMid meet">

<g transform="translate(0.000000,363.000000) scale(0.100000,-0.100000)"
fill="#ffffff" stroke="none">
<path d="M17605 3321 c-89 -23 -169 -93 -200 -174 -22 -59 -17 -175 10 -231
25 -53 79 -104 134 -130 64 -29 188 -29 251 0 94 43 150 127 158 235 8 119
-52 230 -152 278 -48 24 -153 35 -201 22z"/>
<path d="M16530 2799 l0 -491 -71 66 c-169 156 -340 216 -582 203 -332 -17
-613 -206 -766 -513 -80 -161 -106 -300 -98 -517 6 -167 29 -270 86 -393 130
-276 351 -458 635 -521 107 -23 311 -21 408 5 128 35 228 93 336 196 l62 59 0
-116 0 -117 220 0 220 0 0 1315 0 1315 -225 0 -225 0 0 -491z m-346 -658 c89
-32 136 -63 208 -139 142 -151 192 -356 138 -566 -26 -102 -62 -166 -137 -247
-103 -109 -224 -160 -383 -161 -49 0 -113 5 -142 12 -183 43 -342 207 -393
405 -19 75 -19 221 0 304 47 199 208 363 399 407 84 19 233 12 310 -15z"/>
<path d="M837 3211 c-122 -40 -211 -123 -259 -241 l-23 -55 0 -1340 0 -1340
670 -3 c454 -2 701 1 765 8 267 32 483 163 654 395 14 19 24 11 218 -182 250
-249 266 -258 433 -258 101 0 115 2 170 29 68 34 153 113 183 172 54 105 52
56 52 1473 l0 1311 -712 0 c-446 0 -737 -4 -778 -11 -92 -14 -217 -59 -307
-110 -77 -43 -227 -180 -285 -259 l-26 -35 -198 196 c-237 233 -277 258 -416
265 -64 3 -97 0 -141 -15z m1818 -1539 c154 -236 193 -518 108 -786 -27 -86
-85 -210 -104 -222 -14 -8 -922 896 -1015 1011 -75 92 -143 225 -176 340 -32
112 -32 351 0 467 20 75 77 208 109 257 l15 24 508 -509 c374 -376 519 -528
555 -582z"/>
<path d="M1567 2627 c-138 -292 -104 -636 89 -897 52 -71 933 -961 971 -981
29 -16 30 -14 72 86 42 99 62 210 62 337 0 179 -49 337 -151 489 -45 68 -985
1019 -1006 1019 -6 0 -23 -24 -37 -53z"/>
<path d="M11580 2870 l0 -329 -157 -3 -158 -3 -3 -187 -2 -187 157 -3 158 -3
5 -510 c6 -485 7 -514 28 -588 45 -161 122 -275 236 -349 194 -125 558 -126
810 -2 122 60 118 39 46 221 -35 87 -67 166 -72 175 -7 15 -15 13 -81 -16 -94
-43 -154 -57 -245 -58 -93 0 -173 36 -214 97 -54 79 -58 118 -58 597 l0 438
315 0 315 0 0 190 0 190 -315 0 -315 0 0 330 0 330 -225 0 -225 0 0 -330z"/>
<path d="M7745 2590 c-218 -34 -394 -145 -479 -301 -37 -67 -56 -152 -56 -249
0 -154 39 -250 145 -356 60 -61 88 -80 185 -127 63 -30 167 -74 230 -97 301
-111 379 -179 355 -306 -9 -51 -78 -117 -146 -140 -166 -56 -388 10 -551 165
l-83 79 -126 -137 -126 -136 20 -30 c55 -79 190 -191 297 -245 173 -88 416
-121 625 -85 273 48 477 221 531 451 19 81 14 211 -10 290 -37 120 -158 248
-300 318 -39 19 -172 76 -295 125 -226 91 -266 115 -297 173 -30 57 -13 138
38 184 116 106 373 69 533 -77 30 -28 59 -49 64 -47 4 1 52 57 106 123 54 66
105 128 113 138 14 16 12 21 -24 58 -92 96 -228 173 -369 209 -92 24 -287 34
-380 20z"/>
<path d="M10275 2590 c-160 -26 -279 -83 -381 -185 -80 -79 -117 -146 -139
-250 -19 -88 -19 -142 0 -230 28 -132 96 -231 214 -309 73 -49 165 -91 361
-166 163 -62 241 -102 284 -145 66 -65 67 -156 3 -223 -142 -150 -456 -101
-663 104 l-73 72 -126 -135 c-69 -75 -125 -139 -125 -143 0 -4 30 -40 66 -79
164 -177 379 -274 635 -288 262 -14 475 55 623 203 108 107 160 235 159 389
-2 157 -50 265 -170 374 -80 73 -159 115 -436 226 -120 49 -236 101 -257 116
-92 67 -86 209 12 269 127 77 363 29 515 -104 28 -26 53 -46 56 -46 10 0 227
271 227 284 0 31 -168 158 -267 202 -129 57 -370 87 -518 64z"/>
<path d="M5875 2560 c-149 -39 -275 -118 -342 -214 -21 -30 -41 -55 -45 -56
-5 0 -8 56 -8 125 l0 125 -220 0 -220 0 0 -940 0 -940 225 0 225 0 0 523 c0
307 4 548 10 585 39 241 215 401 441 402 173 0 297 -76 365 -225 51 -111 54
-147 54 -737 l0 -548 225 0 226 0 -3 668 c-4 657 -4 668 -26 740 -78 255 -256
428 -508 492 -104 27 -299 27 -399 0z"/>
<path d="M19010 2561 c-294 -64 -533 -250 -669 -518 -127 -253 -127 -626 0
-890 111 -232 319 -414 559 -491 123 -39 181 -47 355 -46 189 0 281 16 415 73
264 113 475 359 546 638 31 122 41 293 25 418 -50 380 -334 704 -706 805 -116
32 -404 38 -525 11z m406 -422 c204 -63 357 -264 379 -496 25 -269 -156 -531
-411 -597 -122 -31 -265 -16 -384 41 -72 35 -196 159 -238 239 -93 178 -81
431 30 591 145 211 383 296 624 222z"/>
<path d="M12980 1931 c0 -511 3 -622 16 -691 61 -324 269 -534 599 -606 109
-23 350 -23 459 0 332 72 538 279 602 604 11 59 14 195 14 688 l0 614 -225 0
-224 0 -3 -607 -3 -608 -23 -58 c-63 -156 -191 -239 -367 -239 -176 0 -304 83
-367 239 l-23 58 -3 608 -3 607 -224 0 -225 0 0 -609z"/>
<path d="M17450 1600 l0 -940 225 0 225 0 0 940 0 940 -225 0 -225 0 0 -940z"/>
</g>
</svg>
