<?xml version="1.0" encoding="UTF-8"?>
<svg id="Layer_2" data-name="Layer 2" xmlns="http://www.w3.org/2000/svg" viewBox="0 0 821.43 187.94">
  <defs>
    <style>
      .cls-1 {
        fill: #fff;
        stroke-width: 0px;
      }
    </style>
  </defs>
  <g id="Layer_1-2" data-name="Layer 1">
    <g>
      <path class="cls-1" d="m92.21,127.58c0-11.69,9.51-21.21,21.21-21.21h24.51l16.99-75.18,7.06-31.2h-56.47c-2.86,0-5.33,2.79-6.5,6.83,0,.04-.02.06-.02.09l-.39,1.74s0,.02,0,.04l-2.79,12.35-2.29,10.15-11.55,51.11c-.42,3.02-1.07,5.89-1.93,8.56-3.64,11.32-10.9,19.04-19.26,19.04h-1.38V31.84H7.21c-3.98,0-7.21,3.84-7.21,8.56v60.94c0,4.72,3.23,8.55,7.21,8.55h29.43v69.49c0,4.73,3.23,8.56,7.21,8.56h48.36v-60.36Z"/>
      <path class="cls-1" d="m168.66,115.36l21.37,67.12h-48.99c-.52,0-1.15-.64-1.47-1.51-.04-.16-.09-.32-.13-.43l-10.09-31.7-7.5-23.71-.03-.1-.04-.11c-.05-.16-.1-.32-.15-.47-.04-.12-.08-.24-.12-.36l-2.76-8.72h49.9m3.99-5.46h-59.24c-.7,0-1.39.05-2.08.13l4.99,15.78c.04.11.08.22.11.33.06.16.09.31.16.5,0,.01,0,.02,0,.04l7.54,23.81,10.09,31.71c.06.19.09.37.16.53,1.09,3.07,3.66,5.22,6.65,5.22h56.46l-24.84-78.04h0Z"/>
      <g>
        <path class="cls-1" d="m257.74,150.46v-43.34l-24.9-77.06h19.06c3.19,0,6.01,2.09,6.94,5.13l12.14,39.78,12.77-44.91h23.64l-24.58,77.06v50.59h-17.8c-4.01,0-7.25-3.25-7.25-7.25"/>
        <path class="cls-1" d="m337.95,113.75h15.29l-7.72-51.53-7.56,51.53Zm-31.68,43.97l23.6-121.78c.66-3.41,3.65-5.87,7.12-5.87h22.86l24.59,127.65h-17.95c-3.55,0-6.58-2.58-7.16-6.09l-3.58-21.96h-20.17l-4.89,28.05h-24.43Z"/>
        <path class="cls-1" d="m422.42,84.44h7.56c4.2,0,7.51-.68,9.93-2.05,2.42-1.36,4.12-3.44,5.12-6.23,1-2.78,1.5-6.22,1.5-10.32,0-5.88-1.08-10.37-3.23-13.47-2.15-3.1-6.17-4.65-12.05-4.65h-8.82v36.72Zm-26,73.28V37.32c0-4,3.24-7.25,7.25-7.25h25.84c8.61,0,16,.97,22.14,2.91,6.14,1.95,10.87,5.39,14.18,10.32,3.31,4.94,4.96,11.77,4.96,20.49,0,5.25-.45,9.9-1.34,13.95-.89,4.05-2.47,7.57-4.73,10.56-2.26,2.99-5.44,5.39-9.53,7.17l17.65,62.25h-20.99c-3.32,0-6.21-2.25-7.03-5.47l-13.27-52.36h-9.14v57.83h-26Z"/>
        <path class="cls-1" d="m513.66,113.75h15.29l-7.72-51.53-7.56,51.53Zm-31.68,43.97l23.6-121.78c.66-3.41,3.65-5.87,7.12-5.87h22.86l24.59,127.65h-17.95c-3.55,0-6.58-2.58-7.16-6.09l-3.58-21.96h-20.17l-4.89,28.05h-24.43Z"/>
        <path class="cls-1" d="m598.13,139.59h5.52c4.83,0,8.27-.76,10.32-2.29,2.05-1.52,3.33-3.78,3.86-6.78.52-2.99.79-6.7.79-11.11v-52.64c0-4.41-.34-7.96-1.03-10.63-.68-2.68-2.05-4.65-4.1-5.91-2.05-1.26-5.39-1.89-10.01-1.89h-5.36v91.25Zm-26,18.12V30.07h31.2c10.82,0,19.25,1.39,25.3,4.18,6.04,2.79,10.32,7.15,12.84,13.08,2.52,5.94,3.78,13.53,3.78,22.77v46.49c0,9.46-1.26,17.23-3.78,23.33-2.52,6.09-6.75,10.58-12.69,13.47-5.94,2.89-14.21,4.33-24.82,4.33h-31.83Z"/>
        <path class="cls-1" d="m662.74,157.71V37.32c0-4,3.24-7.25,7.25-7.25h18.59v127.65h-25.85Z"/>
        <path class="cls-1" d="m743.58,159.45c-9.46,0-16.94-1.79-22.46-5.36-5.51-3.57-9.38-8.54-11.58-14.89-2.21-6.35-3.31-13.73-3.31-22.14v-45.86c0-8.83,1.1-16.41,3.31-22.77,2.21-6.36,6.07-11.27,11.58-14.74,5.51-3.47,13-5.2,22.46-5.2s16.31,1.52,21.51,4.57c5.2,3.05,8.87,7.35,11.03,12.92,2.15,5.57,3.23,12.03,3.23,19.38v10.72h-25.21v-11.98c0-2.94-.16-5.7-.47-8.27-.32-2.57-1.18-4.67-2.6-6.3-1.42-1.63-3.86-2.44-7.33-2.44s-5.99.84-7.57,2.52c-1.57,1.68-2.57,3.86-2.99,6.54-.42,2.68-.63,5.65-.63,8.9v57.99c0,3.57.29,6.7.87,9.38.58,2.68,1.68,4.73,3.31,6.14,1.63,1.42,3.96,2.13,7.01,2.13,3.36,0,5.75-.81,7.17-2.44,1.42-1.63,2.31-3.81,2.68-6.54.37-2.73.55-5.62.55-8.67v-12.45h17.96c4,0,7.25,3.24,7.25,7.25v3.31c0,7.46-1.05,14.05-3.15,19.78-2.1,5.73-5.73,10.24-10.87,13.55-5.15,3.31-12.4,4.97-21.75,4.97"/>
        <path class="cls-1" d="m795.58,157.71V37.32c0-4,3.24-7.25,7.25-7.25h18.59v127.65h-25.84Z"/>
      </g>
    </g>
  </g>
</svg>